<svg id="Camada_1" data-name="Camada 1" xmlns="http://www.w3.org/2000/svg" viewBox="0 0 802.8 151.2"><defs><style>.cls-1{fill:#78848a;}</style></defs><title>logo-cinza</title><path class="cls-1" d="M366.39,116.87A15.5,15.5,0,0,1,372.63,104q6.24-4.84,18-5.86l1.23-.11a9.78,9.78,0,0,0,1.9-.22,1.82,1.82,0,0,0,1-.69,15.06,15.06,0,0,0,1.05-1.72c.17-.35.39-.75.64-1.18a207.64,207.64,0,0,1,15.67-24.1q6.78-8.62,10-8.63h.06a2.84,2.84,0,0,1,.42.06,1.56,1.56,0,0,1,.67.29,2,2,0,0,1,.62.78,3.21,3.21,0,0,1,.27,1.44q0,2.15-2,9.7T418,88.59q-1.12,4.06-1.9,6.83a23.46,23.46,0,0,0-.77,3.19c0,.1.07.18.21.21s.32.07.54.11a3.26,3.26,0,0,1,1,.27.87.87,0,0,1,.51.91l-.08.35-.19.29a.77.77,0,0,1-.59.32h-.1a4.11,4.11,0,0,1-1.13-.11,1.9,1.9,0,0,0-.37,0c-.25,0-.69,1-1.32,2.89s-1.27,4.24-1.95,6.94-1.26,5.34-1.74,7.93a34.35,34.35,0,0,0-.73,5.87,6.7,6.7,0,0,0,.14,1.52,3,3,0,0,0,.29.83,1.29,1.29,0,0,0,.32.38l.27.32a.9.9,0,0,1,.11.48q0,.65-1,.75h-.16a.84.84,0,0,1-.75-.43,6.15,6.15,0,0,1-.75-3.59,49.58,49.58,0,0,1,1.23-10.17q1.23-5.79,2.36-10a29,29,0,0,0,.91-4.07,5.17,5.17,0,0,0-1.66-.32c-1.11-.15-2.44-.3-4-.46s-3.06-.29-4.5-.4-2.51-.16-3.19-.16c-2.07,0-3.51.35-4.31,1a11.82,11.82,0,0,0-2.49,3.57q-7.35,13.44-11,18.69t-7.5,5.25a5.91,5.91,0,0,1-3.35-1.15,8.54,8.54,0,0,1-2.81-3.59,14.8,14.8,0,0,1-1.12-6.19m1.12.17a12.82,12.82,0,0,0,1.85,7.17,5.15,5.15,0,0,0,4.26,2.63q1.61,0,4.07-2.79a64.57,64.57,0,0,0,5.17-6.83q2.7-4,5.12-8.09t4-6.83v-.1l.11-.11.05,0V102l.11-.16v0l.05-.06c.64-1.21,1-1.92,1.13-2.14l.05,0c0-.15-.18-.22-.54-.22a44.8,44.8,0,0,0-8.46.86,29.58,29.58,0,0,0-8.28,2.89,17.77,17.77,0,0,0-6.24,5.44,14.41,14.41,0,0,0-2.41,8.55m28.82-20c0,.36.3.58.89.67a22.09,22.09,0,0,0,3,.14q11,.38,12,.75h.32a.81.81,0,0,0,.46-.19.76.76,0,0,0,.29-.51q4.29-16,6.8-23.79,1.29-4,2-6.53a16,16,0,0,0,.69-3.91c0-.79-.21-1.18-.64-1.18h-.05c-1.15,0-2.76,1.12-4.85,3.37a88.6,88.6,0,0,0-6.7,8.31c-2.37,3.29-4.63,6.61-6.78,10s-3.91,6.29-5.3,8.73a21.24,21.24,0,0,0-2.09,4.15"/><path class="cls-1" d="M421.94,103.86l.05,0a4.74,4.74,0,0,0,.91-1c.54-.7,1.2-1.6,2-2.71q1.67-2.35,3.62-5c1.3-1.75,2.52-3.26,3.64-4.53s2-1.9,2.49-1.9c.33,0,.52.32.59,1a2.84,2.84,0,0,1-.05.54,16.36,16.36,0,0,0-.05,1.66,7.52,7.52,0,0,0,1.34,4.77,4.1,4.1,0,0,0,3.37,1.71,11.11,11.11,0,0,0,2.79-.35c.93-.23,1.73-.45,2.41-.67a5.44,5.44,0,0,1,1.28-.32q.48,0,.54.27c0,.14-.44.37-1.31.67a29.61,29.61,0,0,1-3.14.86,15.12,15.12,0,0,1-3.26.4,5.67,5.67,0,0,1-3.51-1,5.49,5.49,0,0,1-1.88-2.49,8.5,8.5,0,0,1-.56-3c0-.82-.06-.83-.05-1.49-.14,0-.3-.15-1.21,1.06s-2,2.7-3.19,4.45q-2.62,3.69-5.09,7c-1.64,2.2-2.68,3.29-3.1,3.29l-.27-.05-.27-.16a1.68,1.68,0,0,1-.32-1.18,17,17,0,0,1,.88-4.39,45.17,45.17,0,0,1,2-5.41c.74-1.64,1.32-2.47,1.75-2.47h.1a.75.75,0,0,1,.43.25.58.58,0,0,1,.16.4v.1a9.81,9.81,0,0,1-.61,2.42c-.42,1.21-.85,2.46-1.32,3.74-.32.9-.59,1.66-.8,2.31a6,6,0,0,0-.32,1.18"/><path class="cls-1" d="M468.06,97.32c0,.39-.61,1.2-1.85,2.41s-2.7,2.55-4.42,4-3.37,2.86-5,4.18l-2.92,2.49a8.21,8.21,0,0,0-1.26,1.2,12.89,12.89,0,0,1,.22,2.42v.75q0,2.46-.27,5.84a63.55,63.55,0,0,1-.86,6.58,26,26,0,0,1-1.5,5.39c-.6,1.44-1.32,2.17-2.14,2.17H448q-1.17,0-1.23-3.81,0-5.52,3-16.87a139.61,139.61,0,0,1,9.45-24.64l-.32.48c-.68,1-1.87,2.66-3.59,5a76.16,76.16,0,0,1-5.49,6.64q-2.93,3.17-4.63,3.16c-.89,0-1.34-.64-1.34-1.92A10.88,10.88,0,0,1,445,98.47a18.7,18.7,0,0,1,2.84-4.5q1.68-1.95,3.24-2a1.5,1.5,0,0,1,1.47.75,6,6,0,0,1,.57,1.44,3.53,3.53,0,0,0,.1.43l.16.16c.18,0,.6-.43,1.26-1.28s1.4-1.86,2.23-3q1.54-2.2,3-4c.94-1.21,1.6-1.82,2-1.82l.3,0,.37.16.19.22L462,86.77c-.83,1.93-1.95,4.6-3.38,8s-2.75,6.68-4,9.75a32.68,32.68,0,0,0-1.83,5.2c.36,0,1.48-.78,3.35-2.33s3.84-3.25,5.9-5.09S465.71,99,466.88,98L468,97l.08,0,0,.14Zm-16.77.32a3.33,3.33,0,0,0,.65-2v-.21c0-1.08-.22-1.61-.65-1.61h-.05c-.57,0-1.31.61-2.22,1.85a29.05,29.05,0,0,0-2.47,4,8.33,8.33,0,0,0-1.09,3.14v0l.05.08.11,0a2.14,2.14,0,0,0,1.07-.64,35.39,35.39,0,0,0,4.6-4.72m-2.78,35.84c.64-.21,1.21-1.51,1.71-3.88a72.52,72.52,0,0,0,1.18-7.9q.44-4.35.43-6.49,0-1.17-.21-1.17c-.18,0-.47.75-.86,2.24s-.8,3.3-1.21,5.39-.77,4.11-1.07,6a31.51,31.51,0,0,0-.45,4.21c0,1,.14,1.48.43,1.55Z"/><path class="cls-1" d="M488.53,97.05l.08,0,0,0v.08a7.2,7.2,0,0,1-1.31,2.41c-.87,1.29-1.95,2.69-3.21,4.21a37.71,37.71,0,0,1-3.83,4c-1.29,1.14-2.33,1.71-3.11,1.71a1.63,1.63,0,0,1-.32,0,1.28,1.28,0,0,1-.59-.32,2.48,2.48,0,0,1-.59-.8,3.41,3.41,0,0,1-.27-1.5,16.51,16.51,0,0,1,1.42-6q1.43-3.51,2.38-5.44a5.27,5.27,0,0,0,.43-1,9.62,9.62,0,0,0-1.6,1.5q-1.35,1.39-3.22,3.19a40.49,40.49,0,0,1-3.69,3.16,5.57,5.57,0,0,1-3,1.37,1.72,1.72,0,0,1-1.29-.64,2.72,2.72,0,0,1-.59-1.88,8.62,8.62,0,0,1,.56-2.89,11.65,11.65,0,0,1,1.37-2.71c.54-.76,1-1.15,1.5-1.15a1.05,1.05,0,0,1,.4.11.38.38,0,0,1,.24.37,6.46,6.46,0,0,1-.59,1.5c-.36.86-.74,1.83-1.15,2.92a8,8,0,0,0-.62,2.6c0,.54.2.8.59.8.75,0,2-.75,3.62-2.27s3.3-3.1,4.9-4.74c1-1,1.87-1.91,2.6-2.6s1.2-1.05,1.42-1.05l.22.11.15.16a.38.38,0,0,1,.22.38v.1a18.68,18.68,0,0,1-1.39,4q-1.12,2.83-2.25,6a16.21,16.21,0,0,0-1.13,5c0,.5.2.75.59.75h.16c.57,0,1.44-.57,2.6-1.71s2.37-2.45,3.62-3.91,2.32-2.78,3.21-3.94,1.34-1.76,1.34-1.79l.05-.06Z"/><path class="cls-1" d="M502.62,97.05h.13l0,.06a8.51,8.51,0,0,1-1.33,1.28c-.9.79-2,1.67-3.35,2.65a35.23,35.23,0,0,1-4.15,2.63,8.12,8.12,0,0,1-3.7,1.15h-.32a2.85,2.85,0,0,1-.86-.11,3.28,3.28,0,0,1-2.09-3.42,10.84,10.84,0,0,1,.51-3.06,13.27,13.27,0,0,1,1.29-3c.51-.88,1-1.32,1.52-1.32a1,1,0,0,1,.54.27.73.73,0,0,1,.21.54,5.44,5.44,0,0,1-.69,2c-.32.71-.65,1.49-1,2.33a7,7,0,0,0-.48,2.49,1.81,1.81,0,0,0,.67,1.63,3,3,0,0,0,1.74.46,8.11,8.11,0,0,0,4.15-1.58q2.44-1.59,4.42-3.13c1.5-1.22,2.41-1.83,2.74-1.83m-11.47-5.73a1,1,0,0,1-.64-.91v-.32a1.31,1.31,0,0,1,.64-1.13,1.52,1.52,0,0,1,.75-.21,1.35,1.35,0,0,1,.64.16,1.43,1.43,0,0,1,.7,1.23,1.37,1.37,0,0,1-1.34,1.34,1.84,1.84,0,0,1-.75-.16"/><path class="cls-1" d="M521.36,78.36l1.77,0a5.13,5.13,0,0,1,.94.11.88.88,0,0,1,.38.19l.08.21,0,.3-.11.35a.3.3,0,0,1-.29.16l-.22,0-.21-.08-.51-.16a5.1,5.1,0,0,0-1.1-.16c-.5,0-1.21-.06-2.14-.06-.5,0-1.61,0-3.32.09s-3.79.17-6.22.34Q508.46,84.41,506.5,90t-3.35,10.85a35.24,35.24,0,0,0-1.39,8.73,2.93,2.93,0,0,0,.29,1.66,1.1,1.1,0,0,0,.83.32c.93,0,2.12-.69,3.56-2.06a58.36,58.36,0,0,0,4.43-4.77c1.5-1.8,2.81-3.45,4-4.95C516.22,97.93,517,97,517.19,97l0,0,0,.06a11.84,11.84,0,0,1-1.71,2.81c-1.14,1.62-2.55,3.44-4.21,5.44a50.11,50.11,0,0,1-5,5.27q-2.55,2.28-4.21,2.28c-1.36,0-2-1.34-2-4a39.81,39.81,0,0,1,1.36-9.67q1.37-5.39,3.19-10.5T508,79.91a104.87,104.87,0,0,0-10.56,1.61l-.48.1-.27-.1.06,0-.11,0-.11-.27q0-.54,1.5-1a24.32,24.32,0,0,1,3.59-.7c1.39-.18,2.71-.32,3.94-.43s2.13-.18,2.7-.21l.16-.06,1.83-4.18a43.87,43.87,0,0,1,2-4.17c.43-.72.82-1.08,1.18-1.08s.75.2.75.59c0,.08-.32.86-1,2.36l-2.58,6.38c1-.08,2.65-.16,4.93-.27s4.2-.16,5.73-.16"/><path class="cls-1" d="M535.35,97.05h.27l0,.06a13.44,13.44,0,0,1-2.41,1.66,41.43,41.43,0,0,1-5.71,2.89,19.85,19.85,0,0,1-6.24,1.61h-.48a5.28,5.28,0,0,1-2.87-.65,3.5,3.5,0,0,1-1.39-1.58,4.6,4.6,0,0,1-.4-1.84,5.19,5.19,0,0,1,1.31-3.46,10,10,0,0,1,3-2.41,6.71,6.71,0,0,1,3-.88,2.15,2.15,0,0,1,1.18.26,1.06,1.06,0,0,1,.45.59,2.06,2.06,0,0,1,.08.54,3.56,3.56,0,0,1-1.63,2.65,6.67,6.67,0,0,1-4.32,1.31c-.64,0-1,.54-1.12,1.61,0,1.75,1.12,2.64,3.38,2.68a6.59,6.59,0,0,0,.75,0,22.77,22.77,0,0,0,6.48-1.75,54.93,54.93,0,0,0,5.14-2.49c.64-.35,1.13-.61,1.45-.75M523.61,94a4.38,4.38,0,0,0-1.63.53,9.82,9.82,0,0,0-1.71,1.1c-.52.41-.78.76-.78,1l.11.11h.1a8.05,8.05,0,0,0,1.45-.26,8.51,8.51,0,0,0,2-.81,1.55,1.55,0,0,0,1-1.34l-.13-.24a.56.56,0,0,0-.41-.13"/><path class="cls-1" d="M554.36,78.36l1.77,0a5.13,5.13,0,0,1,.94.11.77.77,0,0,1,.37.19l.08.21,0,.3-.11.35a.3.3,0,0,1-.29.16l-.22,0-.21-.08-.51-.16a5.1,5.1,0,0,0-1.1-.16c-.5,0-1.21-.06-2.14-.06-.5,0-1.61,0-3.32.09s-3.79.17-6.22.34Q541.46,84.41,539.5,90t-3.35,10.85a35.24,35.24,0,0,0-1.39,8.73,2.84,2.84,0,0,0,.29,1.66,1.08,1.08,0,0,0,.83.32c.93,0,2.12-.69,3.56-2.06a56.62,56.62,0,0,0,4.42-4.77q2.25-2.7,4-4.95C549.22,97.93,550,97,550.19,97l0,0,0,.06a11.84,11.84,0,0,1-1.71,2.81c-1.15,1.62-2.55,3.44-4.21,5.44a50.11,50.11,0,0,1-5,5.27q-2.55,2.28-4.21,2.28-2,0-2-4a39.86,39.86,0,0,1,1.37-9.67q1.37-5.39,3.19-10.5T541,79.91a104.48,104.48,0,0,0-10.55,1.61l-.48.1-.27-.1,0,0-.1,0-.11-.27q0-.54,1.5-1a24.32,24.32,0,0,1,3.59-.7c1.39-.18,2.7-.32,3.94-.43s2.13-.18,2.7-.21l.16-.06,1.82-4.18a45.78,45.78,0,0,1,2-4.17c.43-.72.82-1.08,1.18-1.08s.75.2.75.59c0,.08-.32.86-1,2.36s-1.5,3.73-2.57,6.38c1-.08,2.65-.16,4.93-.27s4.2-.16,5.73-.16"/><path class="cls-1" d="M570.92,97.05l.08,0,0,0v.08a7,7,0,0,1-1.31,2.41,52.15,52.15,0,0,1-3.21,4.21,37.71,37.71,0,0,1-3.83,4c-1.29,1.14-2.33,1.71-3.11,1.71a1.74,1.74,0,0,1-.32,0,1.28,1.28,0,0,1-.59-.32,2.48,2.48,0,0,1-.59-.8,3.41,3.41,0,0,1-.27-1.5,16.51,16.51,0,0,1,1.42-6c.95-2.34,1.74-4.15,2.39-5.44a5.61,5.61,0,0,0,.42-1,9.62,9.62,0,0,0-1.6,1.5q-1.35,1.39-3.22,3.19a40.49,40.49,0,0,1-3.69,3.16,5.57,5.57,0,0,1-3,1.37,1.72,1.72,0,0,1-1.29-.64,2.72,2.72,0,0,1-.59-1.88,8.62,8.62,0,0,1,.56-2.89,11.65,11.65,0,0,1,1.37-2.71c.54-.76,1-1.15,1.5-1.15a1.05,1.05,0,0,1,.4.11.38.38,0,0,1,.24.37,6.46,6.46,0,0,1-.59,1.5c-.35.86-.74,1.83-1.15,2.92a7.9,7.9,0,0,0-.61,2.6c0,.54.19.8.59.8.75,0,1.95-.75,3.61-2.27s3.3-3.1,4.9-4.74c1-1,1.87-1.91,2.6-2.6S563.26,92,563.47,92l.22.11.16.16a.39.39,0,0,1,.21.38v.1a18.06,18.06,0,0,1-1.39,4q-1.12,2.83-2.25,6a16.21,16.21,0,0,0-1.13,5c0,.5.2.75.59.75H560c.57,0,1.44-.57,2.6-1.71s2.37-2.45,3.62-3.91,2.32-2.78,3.21-3.94,1.34-1.76,1.34-1.79l.05-.06Z"/><path class="cls-1" d="M570.11,103.86l.06,0a5.07,5.07,0,0,0,.91-1c.53-.7,1.19-1.6,2-2.71,1.11-1.57,2.31-3.23,3.62-5s2.51-3.26,3.64-4.53,1.95-1.9,2.49-1.9c.32,0,.52.32.59,1a3,3,0,0,1-.06.54c0,.32-.05.88-.05,1.66a7.58,7.58,0,0,0,1.34,4.77A4.12,4.12,0,0,0,588,98.39a11.09,11.09,0,0,0,2.78-.35c.93-.23,1.73-.45,2.41-.67a5.48,5.48,0,0,1,1.29-.32c.32,0,.5.09.53.27s-.43.37-1.31.67a29.37,29.37,0,0,1-3.13.86,15.28,15.28,0,0,1-3.27.4,5.67,5.67,0,0,1-3.51-1,5.4,5.4,0,0,1-1.87-2.49,8.29,8.29,0,0,1-.57-3,7.6,7.6,0,0,1,.32-2.25c-.14,0-.67.61-1.58,1.82s-2,2.7-3.18,4.45q-2.62,3.69-5.09,7c-1.65,2.2-2.68,3.29-3.11,3.29l-.27-.05-.27-.16a1.68,1.68,0,0,1-.32-1.18,17.1,17.1,0,0,1,.89-4.39,45.17,45.17,0,0,1,2-5.41c.73-1.64,1.31-2.47,1.74-2.47h.11a.75.75,0,0,1,.43.25.64.64,0,0,1,.16.4v.1a10,10,0,0,1-.62,2.42c-.41,1.21-.85,2.46-1.31,3.74-.32.9-.59,1.66-.81,2.31a6,6,0,0,0-.32,1.18"/><path class="cls-1" d="M620.63,97.05h.11l.1.06.06.16a11.14,11.14,0,0,1-2,1.15,35.51,35.51,0,0,1-4.74,2,16,16,0,0,1-5.36,1,5.08,5.08,0,0,1-4-1.42,6.23,6.23,0,0,1-1.24-4.21c0-.39-.16-.59-.48-.59h-.05a2.74,2.74,0,0,0-1.53.78A5.53,5.53,0,0,0,600.06,98c-.47,1-.8,1.45-1,1.45l-.08,0,0-.22a1.06,1.06,0,0,1,.06-.37v-.3l-.06,0a1.08,1.08,0,0,0-.45.26c-.23.18-.51.41-.83.7-.68.57-1.41,1.14-2.2,1.71a3.53,3.53,0,0,1-1.87.86,1.15,1.15,0,0,1-.91-.43,1.2,1.2,0,0,1-.33-.8v-.16a6.38,6.38,0,0,1,1.1-3,15.76,15.76,0,0,1,2.63-3.33,4.33,4.33,0,0,1,2.86-1.47,1.3,1.3,0,0,1,1.24.59,4,4,0,0,1,.42,1.13,2.74,2.74,0,0,0,.11.34l.11.14a1.57,1.57,0,0,0,.64-.38c.32-.21.66-.43,1-.64a2.1,2.1,0,0,1,1.07-.32,1.12,1.12,0,0,1,1.15.72,9.6,9.6,0,0,1,.51,1.74,10.43,10.43,0,0,0,.54,2,3.89,3.89,0,0,0,1.2,1.66,4,4,0,0,0,2.55.67,13.35,13.35,0,0,0,4.5-.83c1.53-.56,2.89-1.1,4.07-1.64a8.18,8.18,0,0,1,2.57-.91m-23.25.7c.68-.54,1.16-1,1.45-1.23a1.07,1.07,0,0,0,.37-.75v-.11a3.61,3.61,0,0,0-.05-.59l-.11-.16-.16,0a1.93,1.93,0,0,0-1.18.64,12.56,12.56,0,0,0-1.36,1.5,18,18,0,0,0-1.13,1.58,3,3,0,0,0-.45.88l0,.06a11.24,11.24,0,0,0,2.57-1.77"/><polygon class="cls-1" points="369.9 52.73 369.9 14.87 372.41 14.87 372.41 50.09 391.9 50.09 391.9 52.73 369.9 52.73"/><path class="cls-1" d="M419.32,49.35a12.63,12.63,0,0,1-18.31,0q-3.45-3.91-3.45-10.41V14.87h2.55V39a12.2,12.2,0,0,0,2.78,8.35,9.91,9.91,0,0,0,14.53,0A12.2,12.2,0,0,0,420.2,39V14.87h2.55V39.05q0,6.39-3.43,10.3"/><path class="cls-1" d="M447.55,53.28a15.71,15.71,0,0,1-12.22-5.49q-4.92-5.49-4.91-14.09t4.91-14a15.85,15.85,0,0,1,12.22-5.39,16.79,16.79,0,0,1,10.14,3.11,13.72,13.72,0,0,1,5.49,8.09l-2.51,1.08a11.66,11.66,0,0,0-4.61-6.84,13.84,13.84,0,0,0-8.51-2.68,13.15,13.15,0,0,0-10.29,4.6q-4.1,4.59-4.09,12t4.09,12.14a13.07,13.07,0,0,0,10.29,4.68,14,14,0,0,0,8.57-2.68,11.72,11.72,0,0,0,4.6-6.84l2.51,1.08a14,14,0,0,1-5.54,8.09,16.79,16.79,0,0,1-10.14,3.11"/><rect class="cls-1" x="471.34" y="14.87" width="2.5" height="37.86"/><path class="cls-1" d="M497.94,14.87,513,52.74h-2.8l-4-10.17H486.87l-4,10.17H480l15.08-37.87ZM487.87,40h17.29l-8.62-21.8Z"/><polygon class="cls-1" points="544.18 14.87 546.68 14.87 546.68 52.73 543.88 52.73 521.74 19.36 521.69 52.73 519.18 52.73 519.18 14.87 521.94 14.87 544.18 48.19 544.18 14.87"/><path class="cls-1" d="M570.68,14.87l15.08,37.87H583l-4-10.17H559.61l-4,10.17h-2.85l15.07-37.87ZM560.61,40h17.28l-8.61-21.8Z"/><polygon class="cls-1" points="635.55 14.87 638.71 14.87 638.71 52.73 636.15 52.73 636.15 20.07 622.17 52.73 619.62 52.73 605.59 19.96 605.59 52.73 603.09 52.73 603.09 14.87 606.25 14.87 620.92 49.06 635.55 14.87"/><path class="cls-1" d="M662.8,14.87l15.08,37.87h-2.81l-4-10.17H651.73l-4,10.17h-2.85L660,14.87ZM652.73,40H670l-8.61-21.8Z"/><polygon class="cls-1" points="716.5 14.87 719.66 14.87 719.66 52.73 717.1 52.73 717.1 20.07 703.13 52.73 700.57 52.73 686.54 19.96 686.54 52.73 684.04 52.73 684.04 14.87 687.2 14.87 701.87 49.06 716.5 14.87"/><polygon class="cls-1" points="730.03 52.73 730.03 14.87 752.27 14.87 752.27 17.52 732.53 17.52 732.53 32.45 752.07 32.45 752.07 35.1 732.53 35.1 732.53 50.09 752.42 50.09 752.42 52.73 730.03 52.73"/><path class="cls-1" d="M761.63,52.74V14.87h13.28A11.17,11.17,0,0,1,783.2,18a11.17,11.17,0,0,1,3.08,8.2,11.2,11.2,0,0,1-2.63,7.65,10.47,10.47,0,0,1-7.19,3.44l9.77,15.47h-2.9l-9.72-15.31h-9.47V52.74Zm2.51-18h10.57a8.89,8.89,0,0,0,6.54-2.27,8.56,8.56,0,0,0,2.28-6.33,8.64,8.64,0,0,0-2.28-6.36,8.82,8.82,0,0,0-6.54-2.3H764.14Z"/><rect class="cls-1" x="794.3" y="14.87" width="2.5" height="37.86"/><path class="cls-1" d="M278.34,143.45V42.76L145.07,75.39,49.72,52.05v57.52L7.48,143.45V37.25L45.4,46.54V6.84L183,40.53,320.58,6.84V109.57Zm4.32-106.2v97.19l33.6-26.95V12.35L183,45,49.72,12.35V47.6l95.35,23.34ZM11.8,42.76v91.68l33.6-26.95V51Z"/></svg>